<?xml version="1.0" standalone="no"?>
<!DOCTYPE svg PUBLIC "-//W3C//DTD SVG 1.1//EN" "http://www.w3.org/Graphics/SVG/1.1/DTD/svg11.dtd" >
<svg>
<metadata>
Created by FontForge 20090914 at Wed Sep 19 14:06:59 2012
 By www-data
This is the font found on the covers of the Nine Inch Nails CD's "Broken" and "Fixed"
</metadata>
<defs>
<font id="ReznorBroken" horiz-adv-x="1000" >
  <font-face 
    font-family="Reznor"
    font-weight="700"
    font-stretch="normal"
    units-per-em="1000"
    panose-1="0 0 7 0 0 0 0 0 0 0"
    ascent="827"
    descent="-173"
    x-height="506"
    cap-height="712"
    bbox="-5 -168.002 885 827"
    underline-thickness="50"
    underline-position="-75"
    unicode-range="U+0020-U+F002"
  />
<missing-glyph horiz-adv-x="500" 
d="M63 0v827h375v-827h-375zM125 63h250v702h-250v-702z" />
    <glyph glyph-name=".notdef" horiz-adv-x="500" 
d="M63 0v827h375v-827h-375zM125 63h250v702h-250v-702z" />
    <glyph glyph-name="space" unicode=" " horiz-adv-x="278" 
 />
    <glyph glyph-name="exclam" unicode="!" horiz-adv-x="260" 
d="M197 712v-276l-39 -253h-56l-39 253v276h134zM63 0v138h134v-138h-134z" />
    <glyph glyph-name="quotedbl" unicode="&#x22;" horiz-adv-x="389" 
d="M226 434v278h94v-278h-94zM69 434v278h94v-278h-94z" />
    <glyph glyph-name="numbersign" unicode="#" horiz-adv-x="556" 
d="M29 189v88h97l18 126h-84v88h97l27 189h95l-27 -189h96l27 189h95l-27 -189h84v-88h-97l-18 -126h84v-88h-97l-27 -189h-95l27 189h-96l-27 -189h-95l27 189h-84zM317 277l18 126h-96l-18 -126h96z" />
    <glyph glyph-name="dollar" unicode="$" horiz-adv-x="556" 
d="M326 272v-171.999c20 6.66699 36.833 18.167 50.5 34.5s20.5 35.166 20.5 56.499c0 40.667 -23.667 67.667 -71 81zM25 103.001l104.001 78c21.333 -44 57.666 -71 108.999 -81v201c-70.667 26.667 -117 49 -139 67c-40 31.333 -60 76.333 -60 135
c0 54.667 20.667 100 62 136c38 34 83.667 51.667 137 53v111h88v-111c35.333 -1.33301 71.5 -12.666 108.5 -33.999s65.167 -48.333 84.5 -81l-92 -72c-28 44.667 -61.667 69.667 -101 75v-166c66.667 -20.667 114.334 -43 143.001 -67c41.333 -34 62 -81.333 62 -142
c0 -65.333 -23.667 -119 -71 -161c-40.667 -35.333 -85.334 -54 -134.001 -56v-118h-88v118c-88 3.33301 -159 41.666 -213 114.999zM238.001 440.001v139.999c-43.333 -8 -65 -31.333 -65 -70c0 -35.333 21.667 -58.666 65 -69.999z" />
    <glyph glyph-name="percent" unicode="%" 
d="M723 350c52 0 92 -16.667 120 -50s42 -77 42 -131s-13.667 -97 -41 -129c-28.667 -34.667 -69 -52 -121 -52s-92.333 17.333 -121 52c-27.333 32 -41 75 -41 129s14 97.667 42 131s68 50 120 50zM723 274c-41.333 0 -62 -35 -62 -105s20.667 -105 62 -105s62 35 62 105
s-20.667 105 -62 105zM248 -38l416 756h87l-416 -756h-87zM277 692c52 0 92 -16.667 120 -50s42 -77 42 -131s-13.667 -97 -41 -129c-28.667 -34.667 -69 -52 -121 -52s-92.333 17.333 -121 52c-27.333 32 -41 75 -41 129s14 97.667 42 131s68 50 120 50zM277 616
c-41.333 0 -62 -35 -62 -105s20.667 -105 62 -105s62 35 62 105s-20.667 105 -62 105z" />
    <glyph glyph-name="ampersand" unicode="&#x26;" horiz-adv-x="630" 
d="M348 360l91.001 -139c10.667 12.667 20.667 31.667 30 57c8 23.333 12 41.666 12 54.999h112c0 -20.667 -6.33301 -49 -19 -85c-16.667 -48.667 -39 -87 -67 -115c24.667 -22 46 -33 64 -33c11.333 0 21.333 1 30 3v-97c-16 -4 -35.667 -6 -59 -6
c-48.667 0 -87 14 -115 42c-57.333 -36 -115.333 -54 -174 -54c-64.667 0 -117.667 18 -159 54c-43.333 38 -65 88.667 -65 152c0 44 15.667 86 47 126c27.333 34.667 62 62.334 104 83.001c-23.333 37.333 -35 72.333 -35 105c0 48.667 16.833 88.5 50.5 119.5
s75.5 46.5 125.5 46.5c48 0 86.667 -14 116 -42s44 -64 44 -108c0 -41.333 -12.667 -76 -38 -104c-20.667 -22 -52.334 -42 -95.001 -60zM359.001 134l-120 176.999c-25.333 -8 -46.333 -22.167 -63 -42.5s-25 -43.5 -25 -69.5c0 -33.333 11.333 -59.666 34 -78.999
c20 -17.333 45.333 -26 76 -26c37.333 0 70 13.333 98 40zM320.001 579.999c-17.333 0 -30.5 -5.66797 -39.5 -17.001s-13.5 -24 -13.5 -38c0 -23.333 10.667 -48.333 32 -75c50.667 10 76 34.333 76 73c0 16.667 -5 30.334 -15 41.001s-23.333 16 -40 16z" />
    <glyph glyph-name="quotesingle" unicode="'" horiz-adv-x="278" 
d="M92 434v278h94v-278h-94z" />
    <glyph glyph-name="parenleft" unicode="(" horiz-adv-x="352" 
d="M299 742l32 -49c-51.333 -48.667 -90 -111.667 -116 -189c-21.333 -65.333 -32 -133.333 -32 -204s10.667 -138.667 32 -204c26 -77.333 64.667 -140.333 116 -189l-32 -49c-83.333 64 -145 129.667 -185 197c-43.333 73.333 -65 155 -65 245s21.667 171.667 65 245
c40 67.333 101.667 133 185 197z" />
    <glyph glyph-name="parenright" unicode=")" horiz-adv-x="352" 
d="M53 -142l-32 49c51.333 48.667 90 111.667 116 189c21.333 65.333 32 133.333 32 204s-10.667 138.667 -32 204c-26 77.333 -64.667 140.333 -116 189l32 49c83.333 -64 145 -129.667 185 -197c43.333 -73.333 65 -155 65 -245s-21.667 -171.667 -65 -245
c-40 -67.333 -101.667 -133 -185 -197z" />
    <glyph glyph-name="asterisk" unicode="*" horiz-adv-x="352" 
d="M306 642l24 -68l-94 -30l60 -83l-60 -43l-60 86l-60 -86l-58 43l58 83l-94 30l22 68l94 -30v100h75v-100z" />
    <glyph glyph-name="plus" unicode="+" horiz-adv-x="600" 
d="M250 0v203h-203v100h203v203h100v-203h203v-100h-203v-203h-100z" />
    <glyph glyph-name="comma" unicode="," horiz-adv-x="278" 
d="M72 0v138h134v-165c0 -64 -42.333 -101.667 -127 -113v61c34 3.33301 51 19.333 51 48v31h-58z" />
    <glyph glyph-name="hyphen" unicode="-" horiz-adv-x="333" 
d="M42 236v112h249v-112h-249z" />
    <glyph glyph-name="period" unicode="." horiz-adv-x="278" 
d="M72 0v138h134v-138h-134z" />
    <glyph glyph-name="slash" unicode="/" horiz-adv-x="463" 
d="M8 -18l338 748h109l-338 -748h-109z" />
    <glyph glyph-name="zero" unicode="0" horiz-adv-x="556" 
d="M278 692c82.667 0 145.334 -31.667 188.001 -95c40 -60 60 -145.667 60 -257s-20 -197 -60 -257c-42.667 -63.333 -105.334 -95 -188.001 -95s-145.334 31.667 -188.001 95c-40 60 -60 145.667 -60 257s20 197 60 257c42.667 63.333 105.334 95 188.001 95zM278 580
c-76 0 -114 -80 -114 -240s38 -240 114 -240s114 80 114 240s-38 240 -114 240z" />
    <glyph glyph-name="one" unicode="1" horiz-adv-x="556" 
d="M258 0l-0.000976562 406c0 27.333 -3.66699 45.333 -11 54s-22.666 13 -45.999 13h-108v82h20c56 0 97 11.333 123 34c20 18 34.667 48.333 44 91h100v-680h-122z" />
    <glyph glyph-name="two" unicode="2" horiz-adv-x="556" 
d="M170 420l-122.001 9.00195c0 81.333 18.333 144.666 55 189.999c40 48.667 99.667 73 179 73c64.667 0 116.834 -19.167 156.501 -57.5s59.5 -89.5 59.5 -153.5c0 -54.667 -15.667 -106 -47 -154c-24 -36.667 -60.667 -76 -110 -118l-127 -103h294v-106h-460v106
c70.667 42.667 134.667 92.667 192 150c78.667 79.333 118 150.666 118 213.999c0 69.333 -30.333 104 -91 104c-64.667 0 -97 -51.333 -97 -154z" />
    <glyph glyph-name="three" unicode="3" horiz-adv-x="556" 
d="M230 306l-0.000976562 106.001h49c59.333 0 89 25.333 89 76c0 61.333 -30 92 -90 92c-57.333 0 -89.333 -39 -96 -117l-133 28c22.667 134 102.334 201 239.001 201c60 0 109.667 -15 149 -45c43.333 -33.333 65 -79 65 -137c0 -76 -37.333 -123.667 -112 -143v-2
c85.333 -20 128.333 -76 129 -168c0 -66.667 -24.667 -119 -74 -157c-45.333 -34.667 -102.666 -52 -171.999 -52c-157.333 0 -236 78 -236 234h128c0 -81.333 37.333 -122 112 -122c31.333 0 56.166 9.66699 74.499 29s27.5 44.666 27.5 75.999
c0 67.333 -33.333 101 -100 101h-49z" />
    <glyph glyph-name="four" unicode="4" horiz-adv-x="556" 
d="M325 0v156h-301v94l298 430h125v-418h85v-106h-85v-156h-122zM325 262v274h-2l-171 -274h173z" />
    <glyph glyph-name="five" unicode="5" horiz-adv-x="556" 
d="M56 306l47.998 374.001h380l-13 -118h-263l-21 -142c36 32 76.667 48 122 48c69.333 0 123 -23 161 -69c35.333 -42 53 -96.667 53 -164c0 -76 -23.667 -136.167 -71 -180.5s-108 -66.5 -182 -66.5c-67.333 0 -122 16.333 -164 49c-46 35.333 -70.333 85.666 -73 150.999
l140 11c0.666992 -29.333 9.83398 -54.166 27.501 -74.499s41.167 -30.5 70.5 -30.5c38 0 67 14.333 87 43c16.667 25.333 25 57.666 25 96.999c0 85.333 -38 128 -114 128c-45.333 0 -77.666 -21.667 -96.999 -65z" />
    <glyph glyph-name="six" unicode="6" horiz-adv-x="556" 
d="M506 519l-129.002 -16.998c-4 52 -31 78 -81 78c-43.333 0 -75.333 -24.333 -96 -73c-15.333 -36.667 -23 -81.334 -23 -134.001h2c28.667 42 73 63 133 63c62.667 0 111.834 -20.5 147.501 -61.5s53.5 -95.167 53.5 -162.5c0 -64 -21.167 -117.333 -63.5 -160
s-96.833 -64 -163.5 -64c-162 0 -243 111.667 -243 335c0 111.333 21 199.666 63 264.999c44.667 69.333 108.334 104 191.001 104c120 0 189.667 -57.667 209 -173zM285.998 324.002c-66 0 -99 -37.333 -99 -112s33 -112 99 -112s99 37.333 99 112s-33 112 -99 112z" />
    <glyph glyph-name="seven" unicode="7" horiz-adv-x="556" 
d="M59 556v124h449v-112c-52 -50 -101 -129.333 -147 -238c-48 -114.667 -76 -224.667 -84 -330h-164c24.667 194 107.667 379.333 249 556h-303z" />
    <glyph glyph-name="eight" unicode="8" horiz-adv-x="556" 
d="M278 692c66 0 119.667 -15 161 -45c48 -34.667 72 -87 72 -157c0 -26.667 -7.33301 -52 -22 -76c-15.333 -26 -36 -45.667 -62 -59c69.333 -34.667 104 -87.334 104 -158.001c0 -69.333 -27.333 -123 -82 -161c-46.667 -32 -103.667 -48 -171 -48s-124.333 16 -171 48
c-54.667 38 -82 91.667 -82 161c0 70.667 34.667 123.334 104 158.001c-26 13.333 -46.667 33 -62 59c-14.667 24 -22 49.333 -22 76c0 70 24 122.333 72 157c41.333 30 95 45 161 45zM165 197c0 -64.667 37.667 -97 113 -97s113 32.333 113 97s-37.667 97 -113 97
s-113 -32.333 -113 -97zM179 490c0 -60 33 -90 99 -90s99 30 99 90s-33 90 -99 90s-99 -30 -99 -90z" />
    <glyph glyph-name="nine" unicode="9" horiz-adv-x="556" 
d="M50 161l129.002 16.999c4.66699 -52 31.667 -78 81 -78c43.333 0 75.333 24.667 96 74c15.333 36 23 80.333 23 133h-2c-28.667 -42 -73 -63 -133 -63c-62.667 0 -111.834 20.5 -147.501 61.5s-53.5 95.167 -53.5 162.5c0 64 21.167 117.333 63.5 160s96.833 64 163.5 64
c162 0 243 -111.667 243 -335c0 -111.333 -21 -199.666 -63 -264.999c-44.667 -69.333 -108.334 -104 -191.001 -104c-120 0 -189.667 57.667 -209 173zM270.002 355.999c66 0 99 37.333 99 112s-33 112 -99 112s-99 -37.333 -99 -112s33 -112 99 -112z" />
    <glyph glyph-name="colon" unicode=":" horiz-adv-x="278" 
d="M72 374v138h134v-138h-134zM72 0v138h134v-138h-134z" />
    <glyph glyph-name="semicolon" unicode=";" horiz-adv-x="278" 
d="M72 0v138h134v-165c0 -64 -42.333 -101.667 -127 -113v61c34 3.33301 51 19.333 51 48v31h-58zM72 374v138h134v-138h-134z" />
    <glyph glyph-name="less" unicode="&#x3c;" 
 />
    <glyph glyph-name="equal" unicode="=" 
 />
    <glyph glyph-name="greater" unicode="&#x3e;" 
 />
    <glyph glyph-name="question" unicode="?" horiz-adv-x="574" 
d="M231 183l-0.00195312 56.999c0 42.667 4 74.334 12 95.001c8.66699 24.667 26.667 45.667 54 63c30 19.333 50 34.333 60 45c18.667 20 28 43.333 28 70c0 28.667 -10 52.334 -30 71.001s-45.667 28 -77 28c-74 0 -113 -45.333 -117 -136l-122 17
c2.66699 73.333 26.334 131.166 71.001 173.499s103.667 63.5 177 63.5c66 0 121.667 -18.667 167 -56c47.333 -40 71 -92 71 -156c0 -46.667 -12 -86 -36 -118c-17.333 -22 -48.666 -49 -93.999 -81c-34.667 -24 -52 -57 -52 -99v-37h-112zM219.998 -0.000976562v138h134
v-138h-134z" />
    <glyph glyph-name="at" unicode="@" horiz-adv-x="800" 
d="M286 296c0 -23.333 5.66699 -42 17 -56s27 -21 47 -21c40 0 74 19 102 57c26 34.667 39 71 39 109c0 27.333 -6.66699 48.833 -20 64.5s-31 23.5 -53 23.5c-38 0 -69.5 -18 -94.5 -54s-37.5 -77 -37.5 -123zM625 547l-69 -264.998c-5.33301 -20.667 -8 -34.667 -8 -42
c0 -14 6.66699 -21 20 -21c28.667 0 55.5 18.5 80.5 55.5s37.5 81.167 37.5 132.5c0 76 -26.333 136.667 -79 182c-50 43.333 -113.667 65 -191 65c-85.333 0 -155 -28.667 -209 -86s-81 -128.666 -81 -213.999c0 -86 28 -156.833 84 -212.5s126.333 -83.5 211 -83.5
c98 0 174.333 30 229 90h79c-72 -110.667 -176 -166 -312 -166c-110 0 -200.667 35.167 -272 105.5s-107 160.166 -107 269.499c0 104.667 37 193 111 265s163.333 108 268 108c93.333 0 173.333 -28.333 240 -85c70 -58.667 105 -132.667 105 -222
c0 -88 -31 -161.333 -93 -220c-51.333 -48 -102 -72 -152 -72c-38 0 -58 20.667 -60 62h-2c-38.667 -41.333 -77.667 -62 -117 -62c-47.333 0 -85 17 -113 51c-26 31.333 -39 70.666 -39 117.999c0 73.333 21 135.166 63 185.499s93 75.5 153 75.5
c59.333 0 100.333 -24 123 -72l17 58h83z" />
    <glyph glyph-name="A" unicode="A" horiz-adv-x="537" 
d="M483 352v-266.999c0 -36.667 6.33301 -65 19 -85h-129c-8 12 -12 27.333 -12 46c-48 -38.667 -103 -58 -165 -58c-49.333 0 -90.333 14.5 -123 43.5s-49 67.5 -49 115.5c0 85.333 51.333 138 154 158l51 10c34 6.66699 78 16.667 132 30v15c0 42.667 -32 64 -96 64
c-35.333 0 -59.833 -5.66699 -73.5 -17s-20.5 -31 -20.5 -59l-122 5c0 55.333 22 97.666 66 126.999c38.667 25.333 88.667 38 150 38c66 0 116 -9.66699 150 -29c45.333 -26 68 -71.667 68 -137zM361 181.001l-0.00195312 72.001
c-13.333 -6.66699 -32.666 -12.667 -57.999 -18l-67 -14c-28 -6 -47.667 -13 -59 -21c-16.667 -10.667 -25 -27 -25 -49c0 -18.667 7.5 -33.834 22.5 -45.501s33.833 -17.5 56.5 -17.5c32.667 0 61.334 7.33301 86.001 22c29.333 17.333 44 41 44 71z" />
    <glyph glyph-name="B" unicode="B" horiz-adv-x="574" 
d="M60 0v712h122v-249c40 36.667 88 55 144 55c64 0 116.667 -25.667 158 -77s62 -114 62 -188s-20.667 -136.667 -62 -188s-94 -77 -158 -77c-60.667 0 -108 20.333 -142 61h-2v-49h-122zM298 406c-42 0 -73.333 -16.333 -94 -49c-17.333 -26.667 -26 -61.334 -26 -104.001
s8.66699 -77.334 26 -104.001c20.667 -32.667 52 -49 94 -49s73.667 16.333 95 49c16.667 26.667 25 61.334 25 104.001s-8.33301 77.334 -25 104.001c-21.333 32.667 -53 49 -95 49z" />
    <glyph glyph-name="C" unicode="C" horiz-adv-x="519" 
d="M501 374l-107 -49.001c-8 24.667 -21.833 44.334 -41.5 59.001s-41.5 22 -65.5 22c-41.333 0 -74 -15.667 -98 -47c-22 -28.667 -33 -64 -33 -106c0 -42.667 10 -78 30 -106c22.667 -31.333 54 -47 94 -47c55.333 0 96.333 32.667 123 98l104 -55
c-47.333 -103.333 -123.666 -155 -228.999 -155c-76 0 -137 25.333 -183 76c-44.667 48.667 -67 111.667 -67 189s23.167 140.833 69.5 190.5s109.5 74.5 189.5 74.5c103.333 0 174.666 -48 213.999 -144z" />
    <glyph glyph-name="D" unicode="D" horiz-adv-x="574" 
d="M276 406c-42 0 -73.333 -16.333 -94 -49c-17.333 -26.667 -26 -61.334 -26 -104.001s8.66699 -77.334 26 -104.001c20.667 -32.667 52 -49 94 -49s73.667 16.333 95 49c16.667 26.667 25 61.334 25 104.001s-8.33301 77.334 -25 104.001c-21.333 32.667 -53 49 -95 49z
M392 0v49h-2c-34 -40.667 -81.333 -61 -142 -61c-64 0 -116.667 25.667 -158 77s-62 114 -62 188s20.667 136.667 62 188s94 77 158 77c56 0 104 -18.333 144 -55v249h122v-712h-122z" />
    <glyph glyph-name="E" unicode="E" horiz-adv-x="556" 
d="M530 224h-374.001c0.666992 -36 14.667 -66 42 -90c24.667 -22.667 54.334 -34 89.001 -34c63.333 0 112 24 146 72l103 -60c-54 -82.667 -137 -124 -249 -124c-80 0 -143.667 25.333 -191 76c-45.333 48.667 -68 111.667 -68 189s23.167 140.833 69.5 190.5
s109.5 74.5 189.5 74.5c162 0 243 -98 243 -294zM155.999 318h246c0 19.333 -9 39.333 -27 60c-22.667 26.667 -52 40 -88 40c-34 0 -62.667 -9.5 -86 -28.5s-38.333 -42.833 -45 -71.5z" />
    <glyph glyph-name="F" unicode="F" horiz-adv-x="315" 
d="M79 0v418h-74v88h74v80c0 84 49.667 126 149 126c28 0 55.333 -1 82 -3v-106c-12.667 2 -26 3 -40 3c-46 0 -69 -21.333 -69 -64v-36h109v-88h-109v-418h-122z" />
    <glyph glyph-name="G" unicode="G" horiz-adv-x="574" 
d="M514 506l-0.000976562 -495.002c0 -67.333 -24.667 -115.333 -74 -144c-40.667 -23.333 -103.667 -35 -189 -35c-72 0 -126.333 18.333 -163 55c-28.667 28.667 -43 62.667 -43 102h128c10.667 -42 45.334 -63 104.001 -63c76.667 0 115 34 115 102v54
c-34.667 -37.333 -82.667 -56 -144 -56c-64 0 -116.667 22.333 -158 67s-62 104.334 -62 179.001s20.667 134.334 62 179.001s94 67 158 67c60.667 0 108 -20.333 142 -61h2v49h122zM395.999 271.998c0 33.333 -8.33301 62.333 -25 87c-22 31.333 -53.667 47 -95 47
s-72.666 -15.667 -93.999 -47c-17.333 -24.667 -26 -53.667 -26 -87s8.66699 -62.333 26 -87c21.333 -31.333 52.666 -47 93.999 -47s73 15.667 95 47c16.667 24.667 25 53.667 25 87z" />
    <glyph glyph-name="H" unicode="H" horiz-adv-x="574" 
d="M60 0v712h122v-256h2c32 41.333 80.333 62 145 62c52 0 93.667 -12 125 -36c40 -31.333 60 -80.333 60 -147v-335h-122v300c0 66.667 -30 100 -90 100c-42 0 -73.333 -15.667 -94 -47c-17.333 -24.667 -26 -55.667 -26 -93v-260h-122z" />
    <glyph glyph-name="I" unicode="I" horiz-adv-x="242" 
d="M60 0v506h122v-506h-122zM60 588v124h122v-124h-122z" />
    <glyph glyph-name="J" unicode="J" horiz-adv-x="242" 
d="M182 506v-561c0 -75.333 -56.333 -113 -169 -113h-16v112h5c38.667 0 58 14 58 42v520h122zM60 588v124h122v-124h-122z" />
    <glyph glyph-name="K" unicode="K" horiz-adv-x="537" 
d="M60 0v712h122v-396l192 190h158l-196 -197l215 -309h-149l-151 227l-69 -68v-159h-122z" />
    <glyph glyph-name="L" unicode="L" horiz-adv-x="242" 
d="M60 0v712h122v-712h-122z" />
    <glyph glyph-name="M" unicode="M" horiz-adv-x="870" 
d="M60 0l-0.000976562 506h122v-50c40 41.333 88.667 62 146 62c76.667 0 126.334 -25.333 149.001 -76c38 50.667 90 76 156 76c118 0 177 -54 177 -162v-356h-122v307c0 66 -27.667 99 -83 99c-32.667 0 -59 -13.667 -79 -41s-30 -60 -30 -98v-267h-122v307
c0 66 -28.333 99 -85 99c-32 0 -57.833 -13.833 -77.5 -41.5s-29.5 -60.167 -29.5 -97.5v-267h-122z" />
    <glyph glyph-name="N" unicode="N" horiz-adv-x="556" 
d="M496 0l0.000976562 506h-122v-50h-2c-34 41.333 -80 62 -138 62c-116 0 -174 -57.333 -174 -172v-346h122v309c0 60.667 28 91 84 91c31.333 0 56.666 -10.667 75.999 -32c21.333 -23.333 32 -57 32 -101v-267h122z" />
    <glyph glyph-name="O" unicode="O" horiz-adv-x="574" 
d="M287 518c80 0 143.667 -25.333 191 -76c45.333 -48.667 68 -111.667 68 -189s-22.667 -140.333 -68 -189c-47.333 -50.667 -111 -76 -191 -76s-143.667 25.333 -191 76c-45.333 48.667 -68 111.667 -68 189s23.167 140.833 69.5 190.5s109.5 74.5 189.5 74.5zM287 406
c-41.333 0 -74 -15.667 -98 -47c-22 -28.667 -33 -64 -33 -106s11 -77.333 33 -106c24 -31.333 56.667 -47 98 -47s74 15.667 98 47c22 28.667 33 64 33 106s-11 77.333 -33 106c-24 31.333 -56.667 47 -98 47z" />
    <glyph glyph-name="P" unicode="P" horiz-adv-x="574" 
d="M60 -162v668h122v-43h2c40 36.667 88 55 144 55c63.333 0 115.5 -25.667 156.5 -77s61.5 -114 61.5 -188s-20.667 -136.667 -62 -188s-94 -77 -158 -77c-60 0 -108 20.333 -144 61v-211h-122zM298 100c42 0 73.667 16.333 95 49c16.667 26.667 25 61.334 25 104.001
s-8.33301 77.334 -25 104.001c-21.333 32.667 -53 49 -95 49s-73.333 -16.333 -94 -49c-17.333 -26.667 -26 -61.334 -26 -104.001s8.66699 -77.334 26 -104.001c20.667 -32.667 52 -49 94 -49z" />
    <glyph glyph-name="Q" unicode="Q" horiz-adv-x="574" 
d="M514 506v-668h-122v211h-2c-31.333 -40.667 -78 -61 -140 -61c-64.667 0 -118 26 -160 78c-41.333 50 -62 112.333 -62 187c0 74 20.5 136.667 61.5 188s93.167 77 156.5 77c32.667 0 60.334 -4.66699 83.001 -14c17.333 -7.33301 37.666 -21 60.999 -41h2v43h122z
M276 100c42 0 73.667 16.333 95 49c16.667 26.667 25 61.334 25 104.001s-8.33301 77.334 -25 104.001c-21.333 32.667 -53 49 -95 49s-73.333 -16.333 -94 -49c-17.333 -26.667 -26 -61.334 -26 -104.001s8.66699 -77.334 26 -104.001c20.667 -32.667 52 -49 94 -49z" />
    <glyph glyph-name="R" unicode="R" horiz-adv-x="352" 
d="M60 0v506h122v-70h2c27.333 54.667 79.333 82 156 82v-124c-46 0 -82.667 -11 -110 -33c-32 -26 -48 -64.667 -48 -116v-245h-122z" />
    <glyph glyph-name="S" unicode="S" horiz-adv-x="500" 
d="M471 426l-85.002 -80.002c-21.333 47.333 -63.666 71.333 -126.999 72c-62 0.666992 -93 -15.666 -93 -48.999c0 -22.667 27.667 -39.334 83 -50.001c83.333 -15.333 134.333 -27.333 153 -36c55.333 -24 83 -63.333 83 -118c0 -57.333 -23 -102 -69 -134
c-41.333 -28.667 -93.333 -43 -156 -43c-109.333 0 -191 30.667 -245 92l92 71c28.667 -42 77.334 -63 146.001 -63c27.333 0 51 6.33301 71 19c18 12 27 25.333 27 40c0 22 -27 38.333 -81 49c-80.667 16.667 -131 29.334 -151 38.001c-54 24.667 -81 64.667 -81 120
c0 54.667 21.667 96.334 65 125.001c39.333 26 92.333 39 159 39c90 0 159.667 -30.667 209 -92z" />
    <glyph glyph-name="T" unicode="T" horiz-adv-x="315" 
d="M79 506v179h122v-179h109v-88h-109v-256c0 -22 3.33301 -37.333 10 -46c8 -10.667 23 -16 45 -16l54 6v-100c-38.667 -8 -71 -12 -97 -12c-89.333 0 -134 40.667 -134 122v302h-74v88h74z" />
    <glyph glyph-name="U" unicode="U" horiz-adv-x="574" 
d="M514 506v-506h-122v50h-2c-32 -41.333 -80.333 -62 -145 -62c-52 0 -93.667 12 -125 36c-40 31.333 -60 80.333 -60 147v335h122v-300c0 -66.667 30 -100 90 -100c42 0 73.667 13.667 95 41c16.667 22.667 25 51.667 25 87v272h122z" />
    <glyph glyph-name="V" unicode="V" horiz-adv-x="464" 
d="M168 0l-167 506h129l101 -350h2l101 350h129l-167 -506h-128z" />
    <glyph glyph-name="W" unicode="W" horiz-adv-x="742" 
d="M154 0l-146 506h126l85 -344h2l95 344h110l95 -344h2l85 344h126l-146 -506h-120l-96 339h-2l-96 -339h-120z" />
    <glyph glyph-name="X" unicode="X" horiz-adv-x="482" 
d="M-5 0l175 273l-152 233h142l81 -124l81 124h142l-152 -233l175 -273h-146l-100 160l-100 -160h-146z" />
    <glyph glyph-name="Y" unicode="Y" horiz-adv-x="463" 
d="M463 506l-166 -551c-14 -46 -32.667 -78 -56 -96s-57.333 -27 -102 -27c-22.667 0 -47 2.33301 -73 7v109c16 -2.66699 32 -4 48 -4c19.333 0 33.5 3 42.5 9s17.5 17.333 25.5 34l-182 519h131l109 -368h2l95 368h126z" />
    <glyph glyph-name="Z" unicode="Z" horiz-adv-x="481" 
d="M26 0v94l268 306h-240v106h401v-94l-265 -306h265v-106h-429z" />
    <glyph glyph-name="bracketleft" unicode="[" horiz-adv-x="352" 
d="M67 -112v824h264v-100h-136v-624h136v-100h-264z" />
    <glyph glyph-name="backslash" unicode="\" horiz-adv-x="463" 
d="M117 730l338 -748h-109l-338 748h109z" />
    <glyph glyph-name="bracketright" unicode="]" horiz-adv-x="352" 
d="M285 712v-824h-264v100h136v624h-136v100h264z" />
    <glyph glyph-name="asciicircum" unicode="^" 
 />
    <glyph glyph-name="underscore" unicode="_" horiz-adv-x="500" 
d="M0 -125v50h500v-50h-500z" />
    <glyph glyph-name="grave" unicode="`" 
 />
    <glyph glyph-name="a" unicode="a" horiz-adv-x="537" 
d="M483 352v-266.999c0 -36.667 6.33301 -65 19 -85h-129c-8 12 -12 27.333 -12 46c-48 -38.667 -103 -58 -165 -58c-49.333 0 -90.333 14.5 -123 43.5s-49 67.5 -49 115.5c0 85.333 51.333 138 154 158l51 10c34 6.66699 78 16.667 132 30v15c0 42.667 -32 64 -96 64
c-35.333 0 -59.833 -5.66699 -73.5 -17s-20.5 -31 -20.5 -59l-122 5c0 55.333 22 97.666 66 126.999c38.667 25.333 88.667 38 150 38c66 0 116 -9.66699 150 -29c45.333 -26 68 -71.667 68 -137zM361 181.001l-0.00195312 72.001
c-13.333 -6.66699 -32.666 -12.667 -57.999 -18l-67 -14c-28 -6 -47.667 -13 -59 -21c-16.667 -10.667 -25 -27 -25 -49c0 -18.667 7.5 -33.834 22.5 -45.501s33.833 -17.5 56.5 -17.5c32.667 0 61.334 7.33301 86.001 22c29.333 17.333 44 41 44 71z" />
    <glyph glyph-name="b" unicode="b" horiz-adv-x="574" 
d="M60 0v712h122v-249c40 36.667 88 55 144 55c64 0 116.667 -25.667 158 -77s62 -114 62 -188s-20.667 -136.667 -62 -188s-94 -77 -158 -77c-60.667 0 -108 20.333 -142 61h-2v-49h-122zM298 406c-42 0 -73.333 -16.333 -94 -49c-17.333 -26.667 -26 -61.334 -26 -104.001
s8.66699 -77.334 26 -104.001c20.667 -32.667 52 -49 94 -49s73.667 16.333 95 49c16.667 26.667 25 61.334 25 104.001s-8.33301 77.334 -25 104.001c-21.333 32.667 -53 49 -95 49z" />
    <glyph glyph-name="c" unicode="c" horiz-adv-x="519" 
d="M501 374l-107 -49.001c-8 24.667 -21.833 44.334 -41.5 59.001s-41.5 22 -65.5 22c-41.333 0 -74 -15.667 -98 -47c-22 -28.667 -33 -64 -33 -106c0 -42.667 10 -78 30 -106c22.667 -31.333 54 -47 94 -47c55.333 0 96.333 32.667 123 98l104 -55
c-47.333 -103.333 -123.666 -155 -228.999 -155c-76 0 -137 25.333 -183 76c-44.667 48.667 -67 111.667 -67 189s23.167 140.833 69.5 190.5s109.5 74.5 189.5 74.5c103.333 0 174.666 -48 213.999 -144z" />
    <glyph glyph-name="d" unicode="d" horiz-adv-x="574" 
d="M276 406c-42 0 -73.333 -16.333 -94 -49c-17.333 -26.667 -26 -61.334 -26 -104.001s8.66699 -77.334 26 -104.001c20.667 -32.667 52 -49 94 -49s73.667 16.333 95 49c16.667 26.667 25 61.334 25 104.001s-8.33301 77.334 -25 104.001c-21.333 32.667 -53 49 -95 49z
M392 0v49h-2c-34 -40.667 -81.333 -61 -142 -61c-64 0 -116.667 25.667 -158 77s-62 114 -62 188s20.667 136.667 62 188s94 77 158 77c56 0 104 -18.333 144 -55v249h122v-712h-122z" />
    <glyph glyph-name="e" unicode="e" horiz-adv-x="556" 
d="M530 224h-374.001c0.666992 -36 14.667 -66 42 -90c24.667 -22.667 54.334 -34 89.001 -34c63.333 0 112 24 146 72l103 -60c-54 -82.667 -137 -124 -249 -124c-80 0 -143.667 25.333 -191 76c-45.333 48.667 -68 111.667 -68 189s23.167 140.833 69.5 190.5
s109.5 74.5 189.5 74.5c162 0 243 -98 243 -294zM155.999 318h246c0 19.333 -9 39.333 -27 60c-22.667 26.667 -52 40 -88 40c-34 0 -62.667 -9.5 -86 -28.5s-38.333 -42.833 -45 -71.5z" />
    <glyph glyph-name="f" unicode="f" horiz-adv-x="315" 
d="M79 0v418h-74v88h74v80c0 84 49.667 126 149 126c28 0 55.333 -1 82 -3v-106c-12.667 2 -26 3 -40 3c-46 0 -69 -21.333 -69 -64v-36h109v-88h-109v-418h-122z" />
    <glyph glyph-name="g" unicode="g" horiz-adv-x="574" 
d="M514 506l-0.000976562 -495.002c0 -67.333 -24.667 -115.333 -74 -144c-40.667 -23.333 -103.667 -35 -189 -35c-72 0 -126.333 18.333 -163 55c-28.667 28.667 -43 62.667 -43 102h128c10.667 -42 45.334 -63 104.001 -63c76.667 0 115 34 115 102v54
c-34.667 -37.333 -82.667 -56 -144 -56c-64 0 -116.667 22.333 -158 67s-62 104.334 -62 179.001s20.667 134.334 62 179.001s94 67 158 67c60.667 0 108 -20.333 142 -61h2v49h122zM395.999 271.998c0 33.333 -8.33301 62.333 -25 87c-22 31.333 -53.667 47 -95 47
s-72.666 -15.667 -93.999 -47c-17.333 -24.667 -26 -53.667 -26 -87s8.66699 -62.333 26 -87c21.333 -31.333 52.666 -47 93.999 -47s73 15.667 95 47c16.667 24.667 25 53.667 25 87z" />
    <glyph glyph-name="h" unicode="h" horiz-adv-x="574" 
d="M60 0v712h122v-256h2c32 41.333 80.333 62 145 62c52 0 93.667 -12 125 -36c40 -31.333 60 -80.333 60 -147v-335h-122v300c0 66.667 -30 100 -90 100c-42 0 -73.333 -15.667 -94 -47c-17.333 -24.667 -26 -55.667 -26 -93v-260h-122z" />
    <glyph glyph-name="i" unicode="i" horiz-adv-x="242" 
d="M60 0v506h122v-506h-122zM60 588v124h122v-124h-122z" />
    <glyph glyph-name="j" unicode="j" horiz-adv-x="242" 
d="M182 506v-561c0 -75.333 -56.333 -113 -169 -113h-16v112h5c38.667 0 58 14 58 42v520h122zM60 588v124h122v-124h-122z" />
    <glyph glyph-name="k" unicode="k" horiz-adv-x="537" 
d="M60 0v712h122v-396l192 190h158l-196 -197l215 -309h-149l-151 227l-69 -68v-159h-122z" />
    <glyph glyph-name="l" unicode="l" horiz-adv-x="242" 
d="M60 0v712h122v-712h-122z" />
    <glyph glyph-name="m" unicode="m" horiz-adv-x="870" 
d="M60 0l-0.000976562 506h122v-50c40 41.333 88.667 62 146 62c76.667 0 126.334 -25.333 149.001 -76c38 50.667 90 76 156 76c118 0 177 -54 177 -162v-356h-122v307c0 66 -27.667 99 -83 99c-32.667 0 -59 -13.667 -79 -41s-30 -60 -30 -98v-267h-122v307
c0 66 -28.333 99 -85 99c-32 0 -57.833 -13.833 -77.5 -41.5s-29.5 -60.167 -29.5 -97.5v-267h-122z" />
    <glyph glyph-name="n" unicode="n" horiz-adv-x="556" 
d="M60 0l-0.000976562 506h122v-50h2c34 41.333 80 62 138 62c116 0 174 -57.333 174 -172v-346h-122v309c0 60.667 -28 91 -84 91c-31.333 0 -56.666 -10.667 -75.999 -32c-21.333 -23.333 -32 -57 -32 -101v-267h-122z" />
    <glyph glyph-name="o" unicode="o" horiz-adv-x="574" 
d="M287 518c80 0 143.667 -25.333 191 -76c45.333 -48.667 68 -111.667 68 -189s-22.667 -140.333 -68 -189c-47.333 -50.667 -111 -76 -191 -76s-143.667 25.333 -191 76c-45.333 48.667 -68 111.667 -68 189s23.167 140.833 69.5 190.5s109.5 74.5 189.5 74.5zM287 406
c-41.333 0 -74 -15.667 -98 -47c-22 -28.667 -33 -64 -33 -106s11 -77.333 33 -106c24 -31.333 56.667 -47 98 -47s74 15.667 98 47c22 28.667 33 64 33 106s-11 77.333 -33 106c-24 31.333 -56.667 47 -98 47z" />
    <glyph glyph-name="p" unicode="p" horiz-adv-x="574" 
d="M60 -162v668h122v-43h2c40 36.667 88 55 144 55c63.333 0 115.5 -25.667 156.5 -77s61.5 -114 61.5 -188s-20.667 -136.667 -62 -188s-94 -77 -158 -77c-60 0 -108 20.333 -144 61v-211h-122zM298 100c42 0 73.667 16.333 95 49c16.667 26.667 25 61.334 25 104.001
s-8.33301 77.334 -25 104.001c-21.333 32.667 -53 49 -95 49s-73.333 -16.333 -94 -49c-17.333 -26.667 -26 -61.334 -26 -104.001s8.66699 -77.334 26 -104.001c20.667 -32.667 52 -49 94 -49z" />
    <glyph glyph-name="q" unicode="q" horiz-adv-x="574" 
d="M514 506v-668h-122v211h-2c-31.333 -40.667 -78 -61 -140 -61c-64.667 0 -118 26 -160 78c-41.333 50 -62 112.333 -62 187c0 74 20.5 136.667 61.5 188s93.167 77 156.5 77c32.667 0 60.334 -4.66699 83.001 -14c17.333 -7.33301 37.666 -21 60.999 -41h2v43h122z
M276 100c42 0 73.667 16.333 95 49c16.667 26.667 25 61.334 25 104.001s-8.33301 77.334 -25 104.001c-21.333 32.667 -53 49 -95 49s-73.333 -16.333 -94 -49c-17.333 -26.667 -26 -61.334 -26 -104.001s8.66699 -77.334 26 -104.001c20.667 -32.667 52 -49 94 -49z" />
    <glyph glyph-name="r" unicode="r" horiz-adv-x="352" 
d="M60 0v506h122v-70h2c27.333 54.667 79.333 82 156 82v-124c-46 0 -82.667 -11 -110 -33c-32 -26 -48 -64.667 -48 -116v-245h-122z" />
    <glyph glyph-name="s" unicode="s" horiz-adv-x="500" 
d="M471 426l-85.002 -80.002c-21.333 47.333 -63.666 71.333 -126.999 72c-62 0.666992 -93 -15.666 -93 -48.999c0 -22.667 27.667 -39.334 83 -50.001c83.333 -15.333 134.333 -27.333 153 -36c55.333 -24 83 -63.333 83 -118c0 -57.333 -23 -102 -69 -134
c-41.333 -28.667 -93.333 -43 -156 -43c-109.333 0 -191 30.667 -245 92l92 71c28.667 -42 77.334 -63 146.001 -63c27.333 0 51 6.33301 71 19c18 12 27 25.333 27 40c0 22 -27 38.333 -81 49c-80.667 16.667 -131 29.334 -151 38.001c-54 24.667 -81 64.667 -81 120
c0 54.667 21.667 96.334 65 125.001c39.333 26 92.333 39 159 39c90 0 159.667 -30.667 209 -92z" />
    <glyph glyph-name="t" unicode="t" horiz-adv-x="315" 
d="M79 506v179h122v-179h109v-88h-109v-256c0 -22 3.33301 -37.333 10 -46c8 -10.667 23 -16 45 -16l54 6v-100c-38.667 -8 -71 -12 -97 -12c-89.333 0 -134 40.667 -134 122v302h-74v88h74z" />
    <glyph glyph-name="u" unicode="u" horiz-adv-x="574" 
d="M514 506v-506h-122v50h-2c-32 -41.333 -80.333 -62 -145 -62c-52 0 -93.667 12 -125 36c-40 31.333 -60 80.333 -60 147v335h122v-300c0 -66.667 30 -100 90 -100c42 0 73.667 13.667 95 41c16.667 22.667 25 51.667 25 87v272h122z" />
    <glyph glyph-name="v" unicode="v" horiz-adv-x="464" 
d="M168 0l-167 506h129l101 -350h2l101 350h129l-167 -506h-128z" />
    <glyph glyph-name="w" unicode="w" horiz-adv-x="742" 
d="M154 0l-146 506h126l85 -344h2l95 344h110l95 -344h2l85 344h126l-146 -506h-120l-96 339h-2l-96 -339h-120z" />
    <glyph glyph-name="x" unicode="x" horiz-adv-x="482" 
d="M-5 0l175 273l-152 233h142l81 -124l81 124h142l-152 -233l175 -273h-146l-100 160l-100 -160h-146z" />
    <glyph glyph-name="y" unicode="y" horiz-adv-x="463" 
d="M463 506l-166 -551c-14 -46 -32.667 -78 -56 -96s-57.333 -27 -102 -27c-22.667 0 -47 2.33301 -73 7v109c16 -2.66699 32 -4 48 -4c19.333 0 33.5 3 42.5 9s17.5 17.333 25.5 34l-182 519h131l109 -368h2l95 368h126z" />
    <glyph glyph-name="z" unicode="z" horiz-adv-x="481" 
d="M26 0v94l268 306h-240v106h401v-94l-265 -306h265v-106h-429z" />
    <glyph glyph-name="braceleft" unicode="{" 
 />
    <glyph glyph-name="bar" unicode="|" 
 />
    <glyph glyph-name="braceright" unicode="}" 
 />
    <glyph glyph-name="asciitilde" unicode="~" 
 />
    <glyph glyph-name="nonbreakingspace" unicode="&#xa0;" 
 />
    <glyph glyph-name="exclamdown" unicode="&#xa1;" 
 />
    <glyph glyph-name="cent" unicode="&#xa2;" 
 />
    <glyph glyph-name="sterling" unicode="&#xa3;" 
 />
    <glyph glyph-name="currency" unicode="&#xa4;" 
 />
    <glyph glyph-name="yen" unicode="&#xa5;" 
 />
    <glyph glyph-name="brokenbar" unicode="&#xa6;" 
 />
    <glyph glyph-name="section" unicode="&#xa7;" 
 />
    <glyph glyph-name="dieresis" unicode="&#xa8;" 
 />
    <glyph glyph-name="copyright" unicode="&#xa9;" 
 />
    <glyph glyph-name="ordfeminine" unicode="&#xaa;" 
 />
    <glyph glyph-name="guillemotleft" unicode="&#xab;" 
 />
    <glyph glyph-name="logicalnot" unicode="&#xac;" 
 />
    <glyph glyph-name="minus" unicode="&#xad;" 
 />
    <glyph glyph-name="registered" unicode="&#xae;" 
 />
    <glyph glyph-name="macron" unicode="&#xaf;" 
 />
    <glyph glyph-name="degree" unicode="&#xb0;" 
 />
    <glyph glyph-name="plusminus" unicode="&#xb1;" 
 />
    <glyph glyph-name="twosuperior" unicode="&#xb2;" 
 />
    <glyph glyph-name="threesuperior" unicode="&#xb3;" 
 />
    <glyph glyph-name="acute" unicode="&#xb4;" 
 />
    <glyph glyph-name="mu" unicode="&#xb5;" 
 />
    <glyph glyph-name="paragraph" unicode="&#xb6;" 
 />
    <glyph glyph-name="cedilla" unicode="&#xb8;" 
 />
    <glyph glyph-name="onesuperior" unicode="&#xb9;" 
 />
    <glyph glyph-name="ordmasculine" unicode="&#xba;" 
 />
    <glyph glyph-name="guillemotright" unicode="&#xbb;" 
 />
    <glyph glyph-name="onequarter" unicode="&#xbc;" 
 />
    <glyph glyph-name="onehalf" unicode="&#xbd;" 
 />
    <glyph glyph-name="threequarters" unicode="&#xbe;" 
 />
    <glyph glyph-name="questiondown" unicode="&#xbf;" 
 />
    <glyph glyph-name="Agrave" unicode="&#xc0;" 
 />
    <glyph glyph-name="Aacute" unicode="&#xc1;" 
 />
    <glyph glyph-name="Acircumflex" unicode="&#xc2;" 
 />
    <glyph glyph-name="Atilde" unicode="&#xc3;" 
 />
    <glyph glyph-name="Adieresis" unicode="&#xc4;" 
 />
    <glyph glyph-name="Aring" unicode="&#xc5;" 
 />
    <glyph glyph-name="AE" unicode="&#xc6;" 
 />
    <glyph glyph-name="Ccedilla" unicode="&#xc7;" 
 />
    <glyph glyph-name="Egrave" unicode="&#xc8;" 
 />
    <glyph glyph-name="Eacute" unicode="&#xc9;" 
 />
    <glyph glyph-name="Ecircumflex" unicode="&#xca;" 
 />
    <glyph glyph-name="Edieresis" unicode="&#xcb;" 
 />
    <glyph glyph-name="Igrave" unicode="&#xcc;" 
 />
    <glyph glyph-name="Iacute" unicode="&#xcd;" 
 />
    <glyph glyph-name="Icircumflex" unicode="&#xce;" 
 />
    <glyph glyph-name="Idieresis" unicode="&#xcf;" 
 />
    <glyph glyph-name="Eth" unicode="&#xd0;" 
 />
    <glyph glyph-name="Ntilde" unicode="&#xd1;" 
 />
    <glyph glyph-name="Ograve" unicode="&#xd2;" 
 />
    <glyph glyph-name="Oacute" unicode="&#xd3;" 
 />
    <glyph glyph-name="Ocircumflex" unicode="&#xd4;" 
 />
    <glyph glyph-name="Otilde" unicode="&#xd5;" 
 />
    <glyph glyph-name="Odieresis" unicode="&#xd6;" 
 />
    <glyph glyph-name="multiply" unicode="&#xd7;" 
 />
    <glyph glyph-name="Oslash" unicode="&#xd8;" 
 />
    <glyph glyph-name="Ugrave" unicode="&#xd9;" 
 />
    <glyph glyph-name="Uacute" unicode="&#xda;" 
 />
    <glyph glyph-name="Ucircumflex" unicode="&#xdb;" 
 />
    <glyph glyph-name="Udieresis" unicode="&#xdc;" 
 />
    <glyph glyph-name="Yacute" unicode="&#xdd;" 
 />
    <glyph glyph-name="Thorn" unicode="&#xde;" 
 />
    <glyph glyph-name="germandbls" unicode="&#xdf;" 
 />
    <glyph glyph-name="agrave" unicode="&#xe0;" 
 />
    <glyph glyph-name="aacute" unicode="&#xe1;" 
 />
    <glyph glyph-name="acircumflex" unicode="&#xe2;" 
 />
    <glyph glyph-name="atilde" unicode="&#xe3;" 
 />
    <glyph glyph-name="adieresis" unicode="&#xe4;" 
 />
    <glyph glyph-name="aring" unicode="&#xe5;" 
 />
    <glyph glyph-name="ae" unicode="&#xe6;" 
 />
    <glyph glyph-name="ccedilla" unicode="&#xe7;" 
 />
    <glyph glyph-name="egrave" unicode="&#xe8;" 
 />
    <glyph glyph-name="eacute" unicode="&#xe9;" 
 />
    <glyph glyph-name="ecircumflex" unicode="&#xea;" 
 />
    <glyph glyph-name="edieresis" unicode="&#xeb;" 
 />
    <glyph glyph-name="igrave" unicode="&#xec;" 
 />
    <glyph glyph-name="iacute" unicode="&#xed;" 
 />
    <glyph glyph-name="icircumflex" unicode="&#xee;" 
 />
    <glyph glyph-name="idieresis" unicode="&#xef;" 
 />
    <glyph glyph-name="eth" unicode="&#xf0;" 
 />
    <glyph glyph-name="ntilde" unicode="&#xf1;" 
 />
    <glyph glyph-name="ograve" unicode="&#xf2;" 
 />
    <glyph glyph-name="oacute" unicode="&#xf3;" 
 />
    <glyph glyph-name="ocircumflex" unicode="&#xf4;" 
 />
    <glyph glyph-name="otilde" unicode="&#xf5;" 
 />
    <glyph glyph-name="odieresis" unicode="&#xf6;" 
 />
    <glyph glyph-name="divide" unicode="&#xf7;" 
 />
    <glyph glyph-name="oslash" unicode="&#xf8;" 
 />
    <glyph glyph-name="ugrave" unicode="&#xf9;" 
 />
    <glyph glyph-name="uacute" unicode="&#xfa;" 
 />
    <glyph glyph-name="ucircumflex" unicode="&#xfb;" 
 />
    <glyph glyph-name="udieresis" unicode="&#xfc;" 
 />
    <glyph glyph-name="yacute" unicode="&#xfd;" 
 />
    <glyph glyph-name="thorn" unicode="&#xfe;" 
 />
    <glyph glyph-name="ydieresis" unicode="&#xff;" 
 />
    <glyph glyph-name="dotlessi" unicode="&#x131;" 
 />
    <glyph glyph-name="Lslash" unicode="&#x141;" 
 />
    <glyph glyph-name="lslash" unicode="&#x142;" 
 />
    <glyph glyph-name="OE" unicode="&#x152;" 
 />
    <glyph glyph-name="oe" unicode="&#x153;" 
 />
    <glyph glyph-name="Scaron" unicode="&#x160;" 
 />
    <glyph glyph-name="scaron" unicode="&#x161;" 
 />
    <glyph glyph-name="Ydieresis" unicode="&#x178;" 
 />
    <glyph glyph-name="Zcaron" unicode="&#x17d;" 
 />
    <glyph glyph-name="zcaron" unicode="&#x17e;" 
 />
    <glyph glyph-name="florin" unicode="&#x192;" 
 />
    <glyph glyph-name="circumflex" unicode="&#x2c6;" 
 />
    <glyph glyph-name="caron" unicode="&#x2c7;" 
 />
    <glyph glyph-name="breve" unicode="&#x2d8;" 
 />
    <glyph glyph-name="dotaccent" unicode="&#x2d9;" 
 />
    <glyph glyph-name="ring" unicode="&#x2da;" 
 />
    <glyph glyph-name="ogonek" unicode="&#x2db;" 
 />
    <glyph glyph-name="tilde" unicode="&#x2dc;" 
 />
    <glyph glyph-name="hungarumlaut" unicode="&#x2dd;" 
 />
    <glyph glyph-name="summation" unicode="&#x3a3;" 
 />
    <glyph glyph-name="Omega" unicode="&#x3a9;" 
 />
    <glyph glyph-name="pi" unicode="&#x3c0;" 
 />
    <glyph glyph-name="endash" unicode="&#x2013;" 
 />
    <glyph glyph-name="emdash" unicode="&#x2014;" 
 />
    <glyph glyph-name="quoteleft" unicode="&#x2018;" 
 />
    <glyph glyph-name="quoteright" unicode="&#x2019;" 
 />
    <glyph glyph-name="quotesinglbase" unicode="&#x201a;" 
 />
    <glyph glyph-name="quotedblleft" unicode="&#x201c;" 
 />
    <glyph glyph-name="quotedblright" unicode="&#x201d;" 
 />
    <glyph glyph-name="quotedblbase" unicode="&#x201e;" 
 />
    <glyph glyph-name="dagger" unicode="&#x2020;" 
 />
    <glyph glyph-name="daggerdbl" unicode="&#x2021;" 
 />
    <glyph glyph-name="bullet" unicode="&#x2022;" 
 />
    <glyph glyph-name="ellipsis" unicode="&#x2026;" 
 />
    <glyph glyph-name="perthousand" unicode="&#x2030;" 
 />
    <glyph glyph-name="guilsinglleft" unicode="&#x2039;" 
 />
    <glyph glyph-name="guilsinglright" unicode="&#x203a;" 
 />
    <glyph glyph-name="trademark" unicode="&#x2122;" 
 />
    <glyph glyph-name="partialdiff" unicode="&#x2202;" 
 />
    <glyph glyph-name="Delta" unicode="&#x2206;" 
 />
    <glyph glyph-name="product" unicode="&#x220f;" 
 />
    <glyph glyph-name="fraction" unicode="&#x2215;" 
 />
    <glyph glyph-name="periodcentered" unicode="&#x2219;" 
 />
    <glyph glyph-name="radical" unicode="&#x221a;" 
 />
    <glyph glyph-name="infinity" unicode="&#x221e;" 
 />
    <glyph glyph-name="integral" unicode="&#x222b;" 
 />
    <glyph glyph-name="approxequal" unicode="&#x2248;" 
 />
    <glyph glyph-name="notequal" unicode="&#x2260;" 
 />
    <glyph glyph-name="lessequal" unicode="&#x2264;" 
 />
    <glyph glyph-name="greaterequal" unicode="&#x2265;" 
 />
    <glyph glyph-name="lozenge" unicode="&#x25ca;" 
 />
    <glyph glyph-name="apple" unicode="&#xf000;" 
 />
    <glyph glyph-name="fi" unicode="&#xf001;" 
 />
    <glyph glyph-name="fl" unicode="&#xf002;" 
 />
    <glyph glyph-name=".null" horiz-adv-x="0" 
 />
    <glyph glyph-name="nonmarkingreturn" horiz-adv-x="278" 
 />
    <glyph glyph-name="LF" 
 />
    <glyph glyph-name="DLE" 
 />
    <glyph glyph-name="DC1" 
 />
    <glyph glyph-name="DC2" 
 />
    <glyph glyph-name="DC3" 
 />
    <glyph glyph-name="DC4" 
 />
    <glyph glyph-name="glyph253" 
 />
  </font>
</defs>
</svg>
